<svg xmlns="http://www.w3.org/2000/svg" viewBox="0 0 477.31 510.03"><g id="Camada_2" data-name="Camada 2"><g id="Camada_1-2" data-name="Camada 1"><path d="M171.44,510c-7.75-2.47-13-7.92-18-14.14Q81,405,8.32,314.26C-2.67,300.52-2.77,286,8,271.93c23.35-30.41,46.82-60.72,70.07-91.2,6-7.87,13.37-11.72,23.39-11.61,24.57.28,49.14.1,73.71.1h5.12c-1.26-42.25-2.46-84-3.84-125.78a10,10,0,0,0-2.66-6.29c-9-8.58-9.91-21.49-1.81-30.31A20.94,20.94,0,0,1,201.9,5.77c8.67,8.21,8.8,21.37.25,30.27a20.72,20.72,0,0,1-2.76,2L255.25,99c6-4.15,11.82-8.2,17.67-12.18,4.82-3.28,9.2-3,11.86.77s1.46,8.12-3.22,11.39q-10.81,7.56-21.72,15c-5.32,3.61-8.08,3.28-12.54-1.57Q221.83,84.69,196.42,57c-1.1-1.2-2.25-2.36-3.89-4.08a21.6,21.6,0,0,0-.5,3.22c.93,34.18,2,68.36,2.75,102.55.11,4.34,1.67,6.28,5.74,7.75q76.23,27.5,152.28,55.42c4.28,1.58,6.72,1,9.74-2.49,23-26.19,46.23-52.17,70.32-79.27-5.5.6-9.94,1-14.35,1.57q-32.31,4.24-64.62,8.57c-9,1.2-10.83,0-13.32-9-6.36-23-12.72-45.94-19.26-69.59-4.42,3-8.45,5.88-12.55,8.6-4.5,3-8.86,2.55-11.44-1s-1.62-7.9,2.76-11.1c3.74-2.72,7.59-5.3,11.34-7.91-5.56-12-3.22-25.14,10.47-31.06,10-4.32,21.82.4,26.64,10.17,5.44,11,1.07,21.91-12.35,29.86L354.33,135l81-10.58c0-2,0-4,0-5.87a21,21,0,0,1,41.91-1.17c.68,11.75-7.66,21.75-19.26,22.26-3.95.17-6.31,1.62-8.74,4.38q-37.77,42.71-75.74,85.25c-2.73,3-5.94,5.67-9.26,8.79.53.75,1.38,2.08,2.34,3.32,8,10.4,16,20.75,24,31.18,10.07,13.24,10,28.16-.41,41.19q-28.38,35.64-56.9,71.17-44.61,55.8-89.15,111.66c-4.87,6.14-10.18,11.29-17.89,13.45ZM142.16,184.16c-14,0-27.26.18-40.5-.09-5.2-.11-8.69,1.77-11.79,5.83Q55.25,235.19,20.4,280.31c-1.16,1.51-2.19,3.13-3.85,5.51h5.76c10.46,0,20.92,0,31.38,0,5.44,0,8.7,2.92,8.66,7.44s-3.39,7.36-8.78,7.46c-5,.1-10,0-14.94,0H17c1.67,2.27,2.66,3.73,3.76,5.1q30.78,38.52,61.58,77,42.6,53.28,85.25,106.52c1.87,2.33,4.54,4,7.65,6.73a16.83,16.83,0,0,0,0-3.14q-32.73-94.68-65.62-189.31c-.45-1.29-2.73-2.7-4.21-2.77-6.3-.31-12.62-.07-18.92-.15-5.76-.08-9-3-8.93-7.74.11-4.58,3.2-7.13,8.85-7.17,7.3-.05,14.59,0,22.22,0Zm64.27,310.66q33.4-96.57,67-193.73H124.71c.62,1.79,1.09,3.19,1.57,4.59l61.35,177.61C192,495.87,192,495.87,206.43,494.82Zm66.84-209.25c-.33-1.49-.49-2.62-.84-3.69-8.8-26.75-17.57-53.51-26.55-80.19a8.48,8.48,0,0,0-4.5-4.47c-10.81-4.19-21.73-8.1-32.66-11.93a21.06,21.06,0,0,0-6.78-1.08c-13.11-.1-26.22.08-39.33-.14-3.57-.06-5.13,1-6.23,4.48-6.15,19.25-12.57,38.41-18.91,57.6-4.3,13-8.61,26-13,39.42ZM222.46,494.29l1.24,1.26c2.25-2,4.85-3.71,6.7-6q73.93-92.25,147.72-184.62c.87-1.1,1.56-2.34,2.75-4.15h-5.61c-26.88,0-53.77.09-80.66-.1-3.92,0-5.65,1-7,4.87C273,348.32,258.12,391,243.33,433.77Q232.86,464,222.46,494.29ZM381.18,285.82a38,38,0,0,0-2.12-3.73c-11.92-15.52-23.81-31.06-35.87-46.47a12.06,12.06,0,0,0-5.27-3.36q-35.66-13.12-71.4-26c-1-.36-2-.52-3.62-.91,8.74,26.4,17.22,52.18,25.93,77.87.42,1.22,2.83,2.46,4.35,2.51,8.29.24,16.59.12,24.88.12ZM181.43,20.49c0,3.8,2.57,6.53,5.88,6.51,3.7,0,5.84-2,6.11-5.69a6,6,0,0,0-12-.82ZM329.73,42.6c-3.65.29-5.88,2.13-6,5.87s2.08,5.81,5.66,6.19a6,6,0,0,0,6.3-6.13C335.49,44.89,333.4,42.9,329.73,42.6Zm126.63,82.31c3.6-.38,5.88-2.24,5.93-6s-2.22-5.76-5.77-6.1a5.91,5.91,0,0,0-6.19,6.19C450.55,122.76,452.75,124.58,456.36,124.91Z"></path><path d="M314.18,153.73c-.77,11.75-5.56,22.05-17.11,28-11.2,5.81-23.44,1-28.33-10.62-5.76-13.71.92-32.53,14.07-39.63,13.75-7.43,29.24,1,31.07,16.94C314,149.93,314.05,151.43,314.18,153.73Zm-14-1.68c-1.81-2.66-3.23-7-5.56-7.54s-6.5,1.65-8.64,3.84c-4,4.1-5.08,9.61-3.94,15.29s5.43,7.18,10,3.81C296.88,163.84,299,158.74,300.2,152.05Z"></path><path d="M86.73,139.73c-2.24,2.11-4.13,4.91-6.75,6.11-3.39,1.55-6.8-.22-8.2-3.62q-4.69-11.47-8.55-23.29c-1.16-3.55.64-6.54,4-8.21s7.3-1.2,8.79,2C79.86,121.11,82.88,129.87,86.73,139.73Z"></path><path d="M51.24,163.89c0,6.72-4.73,10.4-9.6,8.47A192.37,192.37,0,0,1,21.41,163c-3.66-2-4.53-5.71-2.55-9.48s5.34-5.13,9.24-3.46c6.54,2.8,13,5.73,19.29,9.12C49.39,160.22,50.51,162.94,51.24,163.89Z"></path><path d="M128.91,111.3c6.78.09,10.3,5,8.21,10.14-2.69,6.58-5.76,13-9,19.32-1.94,3.74-5.54,4.75-9.38,3.13s-5.45-5.24-3.93-9a196.13,196.13,0,0,1,9.47-20.18C125.24,112.83,128,111.93,128.91,111.3Z"></path></g></g></svg>