<svg xmlns="http://www.w3.org/2000/svg" viewBox="0 0 383.28 359.37"><g id="Camada_2" data-name="Camada 2"><g id="Camada_1-2" data-name="Camada 1"><path d="M0,327.92c1.75-3.05,4.39-3.93,7.84-3.83,7.21.21,14.43.06,22.14.06v-5q0-98.43,0-196.84C30,105.72,39.6,96,56.17,96q33.3,0,66.61,0a15.59,15.59,0,0,1,4.78.56c2.72.89,3.83,3.07,3.49,5.87a5,5,0,0,1-4.59,4.67,24.5,24.5,0,0,1-3.74.1H56.12c-10.21,0-14.91,4.69-14.91,14.84q0,98.79,0,197.58v4.26H59.58c.58-5.79.59-11.55,1.81-17.05,5.4-24.29,29.23-40.1,53.82-36.19,1.24.2,3.36-.44,3.92-1.37a35.68,35.68,0,0,1,41.64-15.41,7.76,7.76,0,0,0,1.35.14c1.45-8.43,5.35-15.43,12.41-20.45a28.91,28.91,0,0,1,18.3-5.39c14.15.51,24.25,9.59,28.22,25,6.17-.23,12.29-1.25,18.19-.51,10.57,1.33,18.73,7.15,24.41,16.2,1.09,1.74,2.12,2.28,4.19,1.95A47.5,47.5,0,0,1,323,322.23c0,.48,0,1,0,1.69h19.05v-202c0-9.89-4.78-14.66-14.72-14.67h-67c-1.25,0-2.85.41-3.67-.2-1.72-1.29-3.68-2.9-4.36-4.8-.86-2.42.66-4.68,3.19-5.58a14.61,14.61,0,0,1,4.77-.61q33.48-.06,67,0c16.31,0,26,9.78,26,26.13q0,98.6,0,197.21v4.79h22.31c5.87,0,7.64,1.74,7.66,7.49,0,3.49.08,7,0,10.48a17.63,17.63,0,0,1-16.9,17.2c-1.49.07-3,0-4.49,0H21.68c-12.54,0-16.8-2.8-21.68-14.22Zm311.44-3.77c.22-2.34.59-4.42.58-6.5a36.37,36.37,0,0,0-46.15-34.9c-6.12,1.7-7.4,1.09-10-4.81-6.49-14.48-23.68-19-36.73-9.58-2.53,1.83-5,3-7.84,1-2.65-1.84-2.63-4.4-1.92-7.35a17.92,17.92,0,0,0-7.26-19.39,18.46,18.46,0,0,0-20.76-.08,17.81,17.81,0,0,0-7.45,19.3c.75,3.07.82,5.75-2.05,7.63s-5.33.58-7.83-1.22c-13-9.36-30.23-4.67-36.65,9.87-2.48,5.63-3.91,6.22-9.8,4.7C102.75,279,90,282.76,80,294.19c-7.44,8.47-10.13,18.54-8.09,30,4.21,0,8.07-.14,11.92,0a5.09,5.09,0,0,1,5.25,5.24c.18,3.26-1.69,5.12-4.72,5.79a17.77,17.77,0,0,1-3.73.13H11.6c-1.24,8.81-.13,12.87,10.61,12.86q169.73-.25,339.46-.11a35.35,35.35,0,0,0,4.49-.09c3.2-.41,5.3-2.29,5.73-5.49a56.73,56.73,0,0,0,.06-7.17H111.09a20.76,20.76,0,0,1-4.47-.19c-2.9-.63-4.66-2.62-4.55-5.58a5.25,5.25,0,0,1,5.15-5.4,35.83,35.83,0,0,1,3.74-.05H311.44Z"></path><path d="M221.26,180.22c-3.83,4.55-6.06,8.91-3.62,14.8,1.61,3.86,2.24,8.15,3.15,12.28,1.14,5.2-1,8-6.34,8q-22.81.14-45.64,0c-5.34,0-7.49-2.86-6.35-8,.91-4.13,1.55-8.41,3.14-12.28,2.43-5.88.27-10.26-3.57-14.76l-19.72,11.1c-6.19,3.49-12.35,7-18.56,10.45-5.58,3.07-9.68.74-9.78-5.56-.09-5.24-.06-10.48,0-15.71a25.59,25.59,0,0,1,6.51-16.69c8-9.42,15.9-18.89,23.65-28.49a7.79,7.79,0,0,0,1.5-5.32c-6.15-48.71,6.79-91.25,40.8-127,3.84-4,6.56-4,10.42,0,30.1,31.34,43.79,68.88,42.1,112.15-.2,5.09-1.13,10.15-1.37,15.25a7.88,7.88,0,0,0,1.53,5c7.62,9.4,15.32,18.73,23.21,27.89a27.52,27.52,0,0,1,7,19.52c-.13,4.61.07,9.23-.05,13.84-.16,5.86-4.31,8.25-9.44,5.38C247,194.83,234.25,187.57,221.26,180.22Zm-29.49-121c-8.35,0-16.7.06-25.05,0-2,0-3.08.47-3.76,2.57-13.14,40.17-9.69,78.75,10.85,115.77,1.13,2,2.52,2.66,4.77,2.63q13.08-.18,26.17,0a4.65,4.65,0,0,0,4.73-2.69c20.45-36.9,23.9-75.37,10.91-115.43-.7-2.15-1.66-2.9-3.94-2.86C208.23,59.34,200,59.25,191.77,59.25Zm22.82-11.44a131.86,131.86,0,0,0-23-33.95,129.29,129.29,0,0,0-22.88,34ZM157.05,170.15c-2.79-7.78-5.38-15-8.09-22.58-1,1-1.79,1.88-2.55,2.79-5.36,6.4-10.46,13-16.12,19.15-4.9,5.28-5.74,11.24-4.8,18.45Zm69.13,0c10.54,5.93,21,11.8,31.82,17.89,0-5.86.88-11.09-2.71-15.45-6.73-8.17-13.52-16.27-20.31-24.38-.18-.22-.63-.21-.81-.26ZM208.35,204c-1-4-1.68-7.54-2.76-10.93-.25-.79-1.81-1.61-2.78-1.63-7.45-.13-14.91-.12-22.37,0-.92,0-2.45.63-2.66,1.29-1.11,3.62-1.91,7.34-2.88,11.29Z"></path><path d="M191.81,125.23A23.5,23.5,0,0,1,168,102a23.59,23.59,0,1,1,23.77,23.25ZM191.56,114A12.25,12.25,0,0,0,204,101.76a12.36,12.36,0,1,0-24.72-.13A12.27,12.27,0,0,0,191.56,114Z"></path></g></g></svg>	